<?xml version="1.0" encoding="utf-8"?>
<svg viewBox="0 0 800 256" width="800" height="256" xmlns="http://www.w3.org/2000/svg">
  <g id="surface1">
    <path style="fill:none;stroke-width:2;stroke-linecap:round;stroke-linejoin:round;stroke:rgb(20%,20%,20%);stroke-opacity:1;stroke-miterlimit:4;" d="M 21.000177 16.001625 L 20.998657 7.998941 C 20.997873 7.285081 20.618244 6.627544 20.00023 6.269612 L 14.15478 2.950847 C 13.693021 2.744806 4.607026 5.926504 3.987411 6.284238 L 4.000326 6.269497 C 3.380711 6.627231 3.000367 7.287323 2.999667 7.998612 L 3.001001 16.000975 C 3.001971 16.715156 3.381599 17.372693 3.999613 17.730625 L 11.000758 21.731503 C 11.617101 22.086542 12.381315 22.085396 12.998359 21.729146 L 19.999332 17.730418 C 20.619268 17.372499 20.999477 16.712914 21.000177 16.001625 Z M 21.000177 16.001625 " transform="matrix(9.116059,5.263149,-5.263149,9.116059,80.080876,-46.234762)"/>
    <path style="fill:none;stroke-width:2;stroke-linecap:round;stroke-linejoin:round;stroke:rgb(15.686275%,70.588235%,38.823529%);stroke-opacity:1;stroke-miterlimit:4;" d="M 18.906113 6.075176 L 6.199863 4.0375 L 6.500078 16.400117 L 9.315566 16.400117 L 8.747051 20.875137 L 12.959336 16.162617 L 18.109375 15.443809 L 18.428145 11.178086 Z M 11.387383 12.55002 L 11.387383 7.656406 M 14.443711 12.55002 L 14.384336 8.971934 " transform="matrix(10.526316,0,0,10.526316,0,0)"/>
  </g>
  <path d="M 146.812 129.277 L 146.812 104.467 C 146.978 104.467 147.368 104.46 147.982 104.447 C 148.588 104.434 149.272 104.427 150.032 104.427 C 150.792 104.427 151.548 104.424 152.302 104.417 C 153.062 104.404 153.685 104.397 154.172 104.397 C 157.005 104.397 159.162 104.957 160.642 106.077 C 162.122 107.204 162.862 108.794 162.862 110.847 C 162.862 112.04 162.532 113.114 161.872 114.067 C 161.212 115.02 160.295 115.79 159.122 116.377 C 160.588 116.937 161.705 117.73 162.472 118.757 C 163.245 119.784 163.632 120.97 163.632 122.317 C 163.632 124.417 162.835 126.107 161.242 127.387 C 159.655 128.674 157.248 129.317 154.022 129.317 C 153.368 129.317 152.662 129.317 151.902 129.317 C 151.142 129.317 150.422 129.31 149.742 129.297 C 149.055 129.284 148.448 129.277 147.922 129.277 C 147.402 129.277 147.032 129.277 146.812 129.277 Z M 151.172 118.177 L 151.172 126.167 L 154.322 126.167 C 155.982 126.167 157.172 125.794 157.892 125.047 C 158.612 124.3 158.972 123.364 158.972 122.237 C 158.972 121.724 158.892 121.224 158.732 120.737 C 158.578 120.25 158.305 119.81 157.912 119.417 C 157.518 119.03 156.998 118.72 156.352 118.487 C 155.705 118.254 154.892 118.137 153.912 118.137 C 153.332 118.137 152.815 118.137 152.362 118.137 C 151.908 118.137 151.512 118.15 151.172 118.177 Z M 151.172 107.547 L 151.172 115.017 L 153.992 115.017 C 155.532 115.017 156.632 114.664 157.292 113.957 C 157.952 113.25 158.282 112.384 158.282 111.357 C 158.282 110.89 158.208 110.427 158.062 109.967 C 157.915 109.5 157.662 109.084 157.302 108.717 C 156.948 108.35 156.475 108.057 155.882 107.837 C 155.282 107.617 154.528 107.507 153.622 107.507 C 153.088 107.507 152.618 107.507 152.212 107.507 C 151.812 107.507 151.465 107.52 151.172 107.547 ZM 171.176 129.427 C 169.883 129.427 168.893 129.04 168.206 128.267 C 167.526 127.5 167.186 126.507 167.186 125.287 L 167.186 111.027 L 171.356 111.027 L 171.356 124.917 C 171.356 125.477 171.443 125.857 171.616 126.057 C 171.789 126.25 172.046 126.347 172.386 126.347 C 172.486 126.347 172.589 126.347 172.696 126.347 C 172.809 126.347 172.913 126.334 173.006 126.307 C 173.106 126.307 173.216 126.297 173.336 126.277 L 173.776 128.907 C 173.609 129.007 173.389 129.094 173.116 129.167 C 172.896 129.24 172.623 129.3 172.296 129.347 C 171.963 129.4 171.589 129.427 171.176 129.427 Z M 169.346 102.887 C 170.126 102.887 170.723 103.12 171.136 103.587 C 171.556 104.054 171.766 104.654 171.766 105.387 C 171.766 106.12 171.549 106.73 171.116 107.217 C 170.689 107.704 170.063 107.947 169.236 107.947 C 168.449 107.947 167.843 107.71 167.416 107.237 C 166.989 106.757 166.776 106.177 166.776 105.497 C 166.776 104.737 166.989 104.114 167.416 103.627 C 167.843 103.134 168.486 102.887 169.346 102.887 ZM 188.727 129.277 L 175.427 129.277 L 175.427 126.787 L 183.527 113.957 C 182.28 114.03 181.047 114.067 179.827 114.067 L 176.237 114.067 L 175.717 111.027 L 188.397 111.027 L 188.397 113.517 L 180.407 126.347 C 181.507 126.274 182.607 126.237 183.707 126.237 L 188.727 126.237 L 188.727 129.277 Z" transform="matrix(5.679409980773926, 0, 0, 5.768649101257324, -582.0035400390625, -545.2181396484375)" style="fill: rgb(51, 51, 51); white-space: pre;"/>
  <path d="M 160.472 129.277 L 155.562 114.217 C 155.195 113.217 154.902 112.24 154.682 111.287 C 154.562 111.747 154.449 112.21 154.342 112.677 C 154.229 113.144 154.085 113.657 153.912 114.217 L 149.152 129.277 L 145.932 129.277 L 139.042 104.467 L 143.402 104.467 L 146.622 116.887 C 147.189 119.04 147.592 120.777 147.832 122.097 C 148.005 121.41 148.209 120.654 148.442 119.827 C 148.669 118.994 148.955 118.04 149.302 116.967 L 153.182 104.467 L 156.442 104.467 L 160.332 116.967 C 160.672 118.067 160.965 119.067 161.212 119.967 C 161.452 120.874 161.645 121.667 161.792 122.347 C 161.892 121.667 162.035 120.874 162.222 119.967 C 162.402 119.067 162.639 118.067 162.932 116.967 L 166.152 104.467 L 170.592 104.467 L 163.702 129.277 L 160.472 129.277 ZM 176.746 129.427 C 175.452 129.427 174.462 129.04 173.776 128.267 C 173.096 127.5 172.756 126.507 172.756 125.287 L 172.756 111.027 L 176.926 111.027 L 176.926 124.917 C 176.926 125.477 177.012 125.857 177.186 126.057 C 177.359 126.25 177.616 126.347 177.956 126.347 C 178.056 126.347 178.159 126.347 178.266 126.347 C 178.379 126.347 178.482 126.334 178.576 126.307 C 178.676 126.307 178.786 126.297 178.906 126.277 L 179.346 128.907 C 179.179 129.007 178.959 129.094 178.686 129.167 C 178.466 129.24 178.192 129.3 177.866 129.347 C 177.532 129.4 177.159 129.427 176.746 129.427 Z M 174.916 102.887 C 175.696 102.887 176.292 103.12 176.706 103.587 C 177.126 104.054 177.336 104.654 177.336 105.387 C 177.336 106.12 177.119 106.73 176.686 107.217 C 176.259 107.704 175.632 107.947 174.806 107.947 C 174.019 107.947 173.412 107.71 172.986 107.237 C 172.559 106.757 172.346 106.177 172.346 105.497 C 172.346 104.737 172.559 104.114 172.986 103.627 C 173.412 103.134 174.056 102.887 174.916 102.887 ZM 194.297 129.277 L 180.997 129.277 L 180.997 126.787 L 189.097 113.957 C 187.85 114.03 186.617 114.067 185.397 114.067 L 181.807 114.067 L 181.287 111.027 L 193.967 111.027 L 193.967 113.517 L 185.977 126.347 C 187.077 126.274 188.177 126.237 189.277 126.237 L 194.297 126.237 L 194.297 129.277 Z" transform="matrix(5.679409980773926, 0, 0, 5.768649101257324, -312.7606201171875, -545.6111450195312)" style="fill: rgb(40, 180, 99); white-space: pre;"/>
</svg>