<?xml version="1.0" encoding="UTF-8"?>
<svg xmlns="http://www.w3.org/2000/svg" xmlns:xlink="http://www.w3.org/1999/xlink" width="256pt" height="256pt" viewBox="0 0 256 256" version="1.1">
<g id="surface1">
<path style="fill:none;stroke-width:2;stroke-linecap:round;stroke-linejoin:round;stroke:rgb(20%,20%,20%);stroke-opacity:1;stroke-miterlimit:4;" d="M 21.000177 16.001625 L 20.998657 7.998941 C 20.997873 7.285081 20.618244 6.627544 20.00023 6.269612 L 14.15478 2.950847 C 13.693021 2.744806 4.607026 5.926504 3.987411 6.284238 L 4.000326 6.269497 C 3.380711 6.627231 3.000367 7.287323 2.999667 7.998612 L 3.001001 16.000975 C 3.001971 16.715156 3.381599 17.372693 3.999613 17.730625 L 11.000758 21.731503 C 11.617101 22.086542 12.381315 22.085396 12.998359 21.729146 L 19.999332 17.730418 C 20.619268 17.372499 20.999477 16.712914 21.000177 16.001625 Z M 21.000177 16.001625 " transform="matrix(9.116059,5.263149,-5.263149,9.116059,80.080876,-46.234762)"/>
<path style="fill:none;stroke-width:2;stroke-linecap:round;stroke-linejoin:round;stroke:rgb(15.686275%,70.588235%,38.823529%);stroke-opacity:1;stroke-miterlimit:4;" d="M 18.906113 6.075176 L 6.199863 4.0375 L 6.500078 16.400117 L 9.315566 16.400117 L 8.747051 20.875137 L 12.959336 16.162617 L 18.109375 15.443809 L 18.428145 11.178086 Z M 11.387383 12.55002 L 11.387383 7.656406 M 14.443711 12.55002 L 14.384336 8.971934 " transform="matrix(10.526316,0,0,10.526316,0,0)"/>
</g>
</svg>
